<?xml version="1.0" encoding="utf-8"?>
<!DOCTYPE svg PUBLIC "-//W3C//DTD SVG 1.1//EN" "http://www.w3.org/Graphics/SVG/1.1/DTD/svg11.dtd">
<svg version="1.1" id="Layer_1" xmlns="http://www.w3.org/2000/svg" xmlns:xlink="http://www.w3.org/1999/xlink" x="0px" y="0px"
	 width="2em" height="2em" viewBox="0 0 32 32" enable-background="new 0 0 32 32" xml:space="preserve">
<g>
	<g>
		<path fill-rule="evenodd" clip-rule="evenodd" fill="none" d="M32.062,32.062c-10.667,0-21.333,0-31.995,0
			c0-10.667,0-21.333,0-31.995c10.667,0,21.333,0,31.995,0C32.062,10.734,32.062,21.399,32.062,32.062z M18.638,21.694
			c0.021,0.058,0.038,0.093,0.047,0.131c0.299,1.316,1.153,2.052,2.446,2.299c1.352,0.259,2.677,0.108,3.965-0.353
			c1.619-0.579,2.864-1.65,3.899-2.997c2.73-3.552,3.294-7.413,1.561-11.547c-1.082-2.582-3.034-4.433-5.38-5.873
			c-3.133-1.923-6.557-2.516-10.17-2.016C10.868,1.911,7.35,3.712,4.614,6.895c-2.771,3.225-4.189,6.958-3.973,11.255
			c0.132,2.616,0.99,4.972,2.646,6.994c2.905,3.55,6.705,5.411,11.253,5.758c3.01,0.229,5.929-0.241,8.762-1.268
			c0.085-0.031,0.165-0.073,0.259-0.116c-0.317-0.758-0.625-1.49-0.933-2.225c-0.734,0.179-1.435,0.36-2.141,0.519
			c-2.414,0.541-4.843,0.763-7.296,0.28C9.808,27.427,7.1,25.695,5.18,22.83c-1.826-2.726-2.079-5.744-1.36-8.871
			c0.57-2.48,1.89-4.539,3.692-6.315c1.985-1.957,4.303-3.273,7.075-3.695c3.794-0.578,7.252,0.208,10.241,2.696
			c2.631,2.189,4.056,4.936,3.713,8.433c-0.228,2.317-1.226,4.262-2.99,5.791c-0.756,0.654-1.645,1.026-2.66,1.012
			c-1.14-0.017-1.81-0.854-1.589-1.96c0.031-0.156,0.062-0.314,0.11-0.466c1.043-3.255,2.088-6.509,3.133-9.763
			c0.041-0.127,0.077-0.256,0.126-0.419c-0.837,0-1.626,0.017-2.413-0.008c-0.304-0.01-0.424,0.089-0.507,0.373
			c-0.175,0.604-0.393,1.197-0.612,1.854c-0.138-0.26-0.236-0.458-0.345-0.651c-0.734-1.295-1.793-2.13-3.315-2.256
			c-1.033-0.085-2.042,0.067-3.016,0.428c-1.805,0.667-3.178,1.892-4.293,3.414c-1.611,2.197-2.228,4.661-1.569,7.318
			c0.505,2.037,1.723,3.576,3.85,4.147c1.902,0.511,3.604-0.003,5.108-1.227C17.927,22.365,18.266,22.03,18.638,21.694z"/>
		<path fill-rule="evenodd" clip-rule="evenodd" d="M18.638,21.694c-0.372,0.336-0.711,0.671-1.079,0.97
			c-1.505,1.224-3.206,1.737-5.108,1.227c-2.127-0.571-3.344-2.11-3.85-4.147c-0.659-2.657-0.042-5.121,1.569-7.318
			c1.116-1.521,2.488-2.746,4.293-3.414c0.974-0.361,1.982-0.513,3.016-0.428c1.522,0.126,2.581,0.96,3.315,2.256
			c0.108,0.192,0.207,0.391,0.345,0.651c0.22-0.657,0.438-1.25,0.612-1.854c0.083-0.284,0.203-0.383,0.507-0.373
			c0.787,0.025,1.576,0.008,2.413,0.008c-0.049,0.164-0.085,0.292-0.126,0.419c-1.045,3.254-2.09,6.508-3.133,9.763
			c-0.049,0.151-0.079,0.31-0.11,0.466c-0.221,1.106,0.449,1.943,1.589,1.96c1.016,0.015,1.904-0.357,2.66-1.012
			c1.765-1.528,2.763-3.474,2.99-5.791c0.343-3.497-1.082-6.243-3.713-8.433c-2.989-2.488-6.447-3.273-10.241-2.696
			c-2.771,0.422-5.09,1.739-7.075,3.695C5.71,9.42,4.39,11.479,3.82,13.959c-0.719,3.126-0.465,6.145,1.36,8.871
			c1.919,2.865,4.628,4.597,8.011,5.262c2.453,0.482,4.882,0.261,7.296-0.28c0.706-0.158,1.406-0.34,2.141-0.519
			c0.308,0.734,0.615,1.467,0.933,2.225c-0.094,0.043-0.174,0.085-0.259,0.116c-2.833,1.026-5.752,1.497-8.762,1.268
			c-4.548-0.347-8.348-2.208-11.253-5.758c-1.656-2.022-2.513-4.378-2.646-6.994c-0.217-4.296,1.201-8.03,3.973-11.255
			c2.735-3.182,6.253-4.984,10.392-5.556c3.613-0.5,7.037,0.093,10.17,2.016c2.346,1.439,4.298,3.291,5.38,5.873
			c1.733,4.134,1.17,7.996-1.561,11.547c-1.035,1.347-2.28,2.418-3.899,2.997c-1.288,0.461-2.613,0.611-3.965,0.353
			c-1.293-0.247-2.147-0.982-2.446-2.299C18.676,21.787,18.658,21.752,18.638,21.694z M16.84,10.72
			c-0.789-0.003-1.513,0.217-2.175,0.641c-0.788,0.504-1.391,1.19-1.896,1.962c-1.163,1.776-1.667,3.719-1.232,5.813
			c0.509,2.449,3.308,3.826,5.56,1.816c0.432-0.386,0.813-0.851,1.131-1.335c0.985-1.498,1.445-3.189,1.668-4.948
			c0.066-0.523,0.117-1.073,0.028-1.585C19.682,11.707,18.358,10.727,16.84,10.72z"/>
		<path fill-rule="evenodd" clip-rule="evenodd" fill="none" d="M16.84,10.72c1.519,0.007,2.842,0.987,3.083,2.364
			c0.089,0.512,0.038,1.063-0.028,1.585c-0.223,1.758-0.683,3.45-1.668,4.948c-0.318,0.484-0.699,0.949-1.131,1.335
			c-2.251,2.01-5.051,0.633-5.56-1.816c-0.435-2.094,0.069-4.037,1.232-5.813c0.506-0.772,1.109-1.458,1.896-1.962
			C15.327,10.937,16.051,10.716,16.84,10.72z"/>
	</g>
</g>
</svg>
