<?xml version="1.0" encoding="utf-8"?>
<!-- Generator: Adobe Illustrator 16.0.0, SVG Export Plug-In . SVG Version: 6.00 Build 0)  -->
<!DOCTYPE svg PUBLIC "-//W3C//DTD SVG 1.1//EN" "http://www.w3.org/Graphics/SVG/1.1/DTD/svg11.dtd">
<svg version="1.1" id="Layer_1" xmlns="http://www.w3.org/2000/svg" xmlns:xlink="http://www.w3.org/1999/xlink" x="0px" y="0px"
	 width="1em" height="1em" viewBox="0 0 32 32" enable-background="new 0 0 32 32" xml:space="preserve">
<g>
	<g>
		<path fill-rule="evenodd" clip-rule="evenodd" fill="none" d="M0.158,0.142c10.666,0,21.309,0,31.968,0
			c0,10.657,0,21.312,0,31.984c-10.64,0-21.296,0-31.968,0C0.158,21.486,0.158,10.83,0.158,0.142z M12.315,16.191
			c-0.232,0.183-0.438,0.312-0.604,0.479c-3.405,3.399-6.802,6.806-10.21,10.201c-0.672,0.67-1.102,1.431-1.01,2.398
			c0.109,1.136,0.695,1.958,1.776,2.352c1.133,0.412,2.147,0.149,2.997-0.696c2.233-2.225,4.459-4.457,6.686-6.688
			c1.389-1.391,2.775-2.783,4.224-4.235c0.555,0.581,1.067,1.14,1.603,1.676c3.046,3.054,6.094,6.106,9.146,9.152
			c1.3,1.297,3.075,1.303,4.2,0.033c1.014-1.144,0.898-2.738-0.306-3.946c-3.413-3.424-6.833-6.842-10.255-10.257
			c-0.165-0.165-0.38-0.28-0.6-0.439c1.721-1.719,3.331-3.326,4.939-4.934c1.994-1.993,3.995-3.981,5.979-5.985
			c1.253-1.265,1.23-3.021-0.023-4.147c-1.129-1.013-2.74-0.893-3.945,0.31c-3.421,3.416-6.839,6.835-10.252,10.259
			c-0.165,0.166-0.277,0.383-0.492,0.686c-0.264-0.332-0.394-0.535-0.561-0.701C12.211,8.303,8.805,4.905,5.411,1.496
			C4.721,0.803,3.935,0.382,2.94,0.497C1.833,0.625,1.041,1.222,0.658,2.268c-0.402,1.1-0.171,2.109,0.654,2.943
			c1.851,1.87,3.715,3.726,5.577,5.584C8.667,12.566,10.449,14.335,12.315,16.191z"/>
		<path fill-rule="evenodd" clip-rule="evenodd" d="M12.315,16.191c-1.866-1.856-3.648-3.625-5.426-5.396
			C5.027,8.937,3.163,7.08,1.313,5.21C0.487,4.376,0.256,3.367,0.658,2.268C1.041,1.222,1.833,0.625,2.94,0.497
			c0.994-0.115,1.78,0.306,2.471,0.999c3.394,3.409,6.8,6.807,10.197,10.213c0.167,0.166,0.297,0.369,0.561,0.701
			c0.215-0.303,0.327-0.52,0.492-0.686c3.413-3.424,6.831-6.843,10.252-10.259c1.205-1.203,2.816-1.323,3.945-0.31
			c1.254,1.126,1.276,2.882,0.023,4.147c-1.984,2.003-3.985,3.992-5.979,5.985c-1.608,1.607-3.219,3.215-4.939,4.934
			c0.22,0.159,0.435,0.274,0.6,0.439c3.422,3.415,6.842,6.833,10.255,10.257c1.204,1.208,1.319,2.803,0.306,3.946
			c-1.125,1.27-2.9,1.264-4.2-0.033c-3.053-3.046-6.101-6.099-9.146-9.152c-0.535-0.536-1.048-1.095-1.603-1.676
			c-1.448,1.452-2.835,2.845-4.224,4.235c-2.227,2.23-4.452,4.463-6.686,6.688c-0.85,0.846-1.864,1.108-2.997,0.696
			c-1.081-0.394-1.667-1.216-1.776-2.352c-0.092-0.968,0.338-1.729,1.01-2.398c3.408-3.396,6.805-6.802,10.21-10.201
			C11.878,16.503,12.083,16.374,12.315,16.191z"/>
	</g>
</g>
</svg>
