<?xml version="1.0" standalone="no"?>
<!DOCTYPE svg PUBLIC "-//W3C//DTD SVG 20010904//EN"
 "http://www.w3.org/TR/2001/REC-SVG-20010904/DTD/svg10.dtd">
<svg version="1.0" xmlns="http://www.w3.org/2000/svg"
 width="700.000000pt" height="700.000000pt" viewBox="0 0 700.000000 700.000000"
 preserveAspectRatio="xMidYMid meet">
<metadata>
Created by potrace 1.11, written by Peter Selinger 2001-2013
</metadata>
<g transform="translate(0.000000,700.000000) scale(0.100000,-0.100000)"
fill="#000000" stroke="none">
<path d="M727 6404 c-1 -1 -25 -4 -54 -7 -68 -7 -142 -45 -171 -88 -19 -27
-23 -44 -20 -85 6 -65 29 -97 98 -131 l55 -28 380 -3 c209 -2 381 -5 382 -6 2
-2 4 -2130 3 -3882 l0 -241 -307 1 c-370 1 -449 -5 -520 -39 -70 -35 -97 -78
-91 -146 4 -37 12 -58 34 -80 27 -28 104 -76 104 -64 0 2 12 0 28 -6 19 -8
354 -11 1087 -11 948 0 1067 1 1124 16 96 25 144 66 156 136 14 77 -43 146
-142 175 -51 15 -116 17 -536 18 l-477 1 2 901 3 900 725 1 725 1 105 -40 c58
-22 177 -74 265 -117 455 -218 793 -487 1206 -960 194 -223 286 -335 575 -705
13 -16 74 -97 136 -180 l113 -150 330 1 c354 1 417 5 480 33 73 32 117 110
101 175 -9 38 -56 87 -103 108 -57 25 -123 31 -353 31 l-196 1 -54 70 c-142
185 -498 625 -640 791 -171 199 -256 291 -389 419 -109 105 -110 106 -153 138
-20 15 -42 34 -50 41 -75 74 -365 264 -617 405 l-54 30 54 15 c30 9 88 25 129
36 308 83 657 231 865 370 172 114 359 312 432 455 29 56 69 160 79 203 14 59
13 268 -1 333 -63 290 -270 555 -605 774 -41 27 -86 56 -100 65 -99 66 -350
173 -510 219 -183 53 -293 72 -545 98 -57 6 -3081 14 -3088 8z m3083 -356 c14
-3 52 -9 85 -13 78 -9 253 -49 335 -76 255 -83 494 -227 673 -404 158 -157
227 -300 227 -473 0 -279 -268 -566 -700 -747 -147 -62 -427 -153 -516 -168
-16 -3 -49 -10 -74 -15 -25 -6 -65 -13 -90 -17 -25 -3 -52 -8 -60 -10 -8 -2
-37 -6 -65 -9 -27 -3 -68 -8 -90 -11 -100 -14 -195 -16 -912 -19 l-763 -4 0
990 0 989 963 -4 c529 -2 973 -6 987 -9z"/>
<path d="M2639 1292 c-12 -2 -15 -16 -14 -70 1 -37 0 -73 -3 -79 -2 -8 -23
-13 -53 -13 l-49 0 0 -35 0 -35 50 0 c40 0 50 -3 51 -17 1 -10 3 -85 4 -168 3
-230 1 -213 43 -255 46 -46 102 -60 252 -61 149 -1 139 -4 136 33 -2 18 -4 35
-5 38 0 4 -47 7 -103 8 -57 1 -112 3 -123 6 -11 2 -23 5 -26 5 -22 3 -33 76
-34 225 0 88 1 167 3 174 3 9 38 12 138 11 73 0 137 2 142 5 5 3 9 19 10 36
l1 30 -145 0 c-108 0 -144 3 -145 13 -1 6 -2 43 -3 82 l-1 70 -55 0 c-30 0
-62 -1 -71 -3z"/>
<path d="M577 1139 c-71 -11 -147 -41 -171 -66 -29 -31 -34 -29 -31 17 l3 40
-73 0 -73 0 -1 -285 c0 -242 2 -285 15 -286 18 -1 100 -1 117 0 9 1 12 44 13
179 0 175 1 180 27 224 35 60 94 90 193 96 40 2 86 0 103 -6 23 -8 31 -8 32 1
6 57 5 78 -2 82 -15 10 -104 12 -152 4z"/>
<path d="M1070 1135 c-120 -21 -198 -70 -248 -154 -38 -65 -42 -184 -8 -257
33 -71 100 -126 188 -155 91 -30 260 -32 349 -5 150 45 235 161 222 305 -14
168 -141 264 -364 275 -40 1 -103 -2 -139 -9z m237 -96 c58 -28 100 -82 113
-143 23 -114 -25 -209 -125 -252 -88 -37 -231 -18 -294 39 -86 79 -80 262 13
331 71 54 209 66 293 25z"/>
<path d="M2018 1145 c-2 -2 -23 -5 -48 -8 -101 -12 -166 -44 -201 -100 -22
-36 -20 -94 5 -133 21 -31 92 -63 178 -79 40 -8 110 -21 156 -30 127 -24 155
-44 145 -99 -9 -44 -75 -69 -192 -71 -52 -1 -115 2 -140 7 -25 5 -56 10 -69
13 -13 2 -39 9 -58 15 -42 14 -47 11 -50 -35 -2 -42 7 -51 69 -59 27 -4 59
-10 70 -12 12 -3 73 -6 136 -8 246 -6 391 64 378 184 -9 84 -94 132 -277 156
-78 10 -171 34 -201 51 -60 36 -24 103 64 119 70 12 178 11 252 -4 120 -23
120 -23 120 23 l0 40 -60 12 c-51 11 -270 24 -277 18z"/>
<path d="M3430 1138 c-36 -4 -91 -13 -122 -19 l-58 -12 0 -43 c0 -24 1 -44 3
-44 1 0 18 5 37 11 232 70 480 25 480 -87 l0 -24 -142 -1 c-165 -1 -203 -4
-276 -25 -104 -29 -152 -76 -160 -154 -12 -124 103 -199 299 -195 124 3 196
25 257 79 l22 19 0 -41 c0 -33 4 -42 18 -43 120 -5 122 -5 123 16 1 11 1 99 1
195 -1 191 -9 228 -60 283 -68 72 -243 107 -422 85z m336 -341 c-7 -63 -45
-112 -112 -146 -42 -21 -63 -25 -139 -25 -97 1 -140 15 -169 56 -51 72 20 149
144 157 25 2 46 4 47 4 1 1 54 2 118 3 l117 1 -6 -50z"/>
<path d="M4395 1143 c-134 -22 -204 -53 -230 -103 -8 -16 -15 -48 -15 -71 0
-36 6 -48 39 -79 44 -42 99 -59 266 -85 152 -24 195 -45 195 -96 0 -85 -205
-113 -422 -58 -42 10 -79 19 -83 19 -3 0 -5 -21 -3 -47 l3 -47 75 -13 c112
-20 288 -23 370 -7 167 31 248 132 184 229 -29 45 -124 84 -249 101 -27 3 -59
8 -70 10 -11 3 -36 7 -55 10 -104 17 -145 70 -94 122 39 39 235 48 367 18 38
-9 70 -16 73 -16 2 0 4 20 4 43 l0 44 -67 12 c-66 12 -248 21 -288 14z"/>
<path d="M5258 1145 c-2 -2 -25 -5 -53 -8 -27 -3 -78 -11 -112 -17 l-63 -13 0
-44 c0 -38 3 -44 16 -39 84 32 267 48 364 32 61 -10 122 -53 134 -94 5 -18 7
-34 5 -36 -2 -2 -85 -6 -184 -9 -145 -4 -193 -9 -246 -26 -111 -35 -161 -103
-146 -196 8 -47 34 -79 87 -109 56 -31 84 -37 183 -40 123 -5 226 23 285 77
l22 20 0 -41 c0 -33 4 -42 18 -43 42 -3 114 0 118 4 10 9 4 372 -5 406 -32
109 -145 168 -335 175 -47 1 -87 2 -88 1z m292 -331 c0 -18 -5 -45 -10 -60
-16 -42 -84 -102 -132 -116 -62 -18 -196 -15 -235 5 -63 33 -81 92 -42 141 26
33 54 45 128 53 31 3 57 6 58 7 1 0 53 1 117 2 l116 0 0 -32z"/>
<path d="M6325 1142 c-54 -9 -124 -38 -160 -64 l-40 -29 -3 41 -3 41 -71 -3
-71 -3 -1 -283 c-1 -275 -1 -282 19 -283 11 0 44 -1 73 -2 l52 -2 0 183 c0
163 2 187 20 222 34 67 115 102 236 101 70 0 124 -24 153 -66 23 -34 24 -42
25 -235 1 -170 3 -200 16 -201 18 -1 113 -1 121 0 3 1 5 94 4 209 -1 191 -3
210 -23 249 -25 49 -71 87 -131 108 -41 14 -174 25 -216 17z"/>
</g>
</svg>
